<?xml version="1.0" encoding="utf-8"?>
<!-- Svg Vector Icons : http://www.onlinewebfonts.com/icon -->
<!DOCTYPE svg PUBLIC "-//W3C//DTD SVG 1.1//EN" "http://www.w3.org/Graphics/SVG/1.1/DTD/svg11.dtd">
<svg version="1.1" xmlns="http://www.w3.org/2000/svg" xmlns:xlink="http://www.w3.org/1999/xlink" x="0px" y="0px" viewBox="0 0 256 256" enable-background="new 0 0 256 256" xml:space="preserve">
<metadata> Svg Vector Icons : http://www.onlinewebfonts.com/icon </metadata>
<g><g><path fill="#000000" d="M120.3,10.4c27.4-1.8,52.6,6.3,70.3,17.4c17.9,11.3,32.5,26.9,42,45.4c9.3,18.1,16.3,44,12.2,72.6c-2.7,18.8-9.5,33.8-18.5,47.3c-2.9,4.3-5.9,10.4-10.8,10.8c-4.8,0.4-8.6-2.7-9.2-7.4c-0.5-3.6,1.5-5.8,3.4-8.5c5.2-6.9,9.9-16,12.9-23.8c4.3-11.2,7.7-25.4,6.6-41.7c-2-30.5-13.8-50.8-30.4-67.4c-8.3-8.3-18.8-15-29.3-19.8c-11.2-5.1-23.4-8.3-39.9-9c-15.1-0.6-29.5,3.2-40.9,7.9c-22.9,9.5-39.8,26.1-50.7,47.3c-5.6,10.8-9.7,23-10.8,38c-2.4,30.8,8.3,56,23.2,73.4c14.6,17.1,34.6,31,62.6,35.1c29.4,4.3,51.6-3.5,68.9-14.5c2.8-1.8,4.9-3.7,8.2-3.4c4.6,0.3,8,3.2,7.9,8.5c-0.1,4.9-4.4,7.5-7.9,9.8c-11,6.8-23.5,12.1-37.5,15c-20.3,4.4-45.1,2-61.5-3.4c-33.7-11.1-59.6-34.9-72.6-67.9c-6.8-17.2-10.2-39.1-7.4-60.2C13.8,91.4,21.2,75,30.6,61.3c13.9-20.3,33.5-36.9,60-45.4C99.4,13.1,110.6,11,120.3,10.4z"/><path fill="#000000" d="M181.1,94.1c-17.3,9.5-35.4,18.2-52.8,27.5c-17.9-10.9-35.4-22.2-53.1-33.3c16.8-9,34.5-18.3,51.3-26.4C144.8,72.4,162.6,83.6,181.1,94.1z"/><path fill="#000000" d="M68.3,97.5c18.3,10.8,36.5,21.6,54.4,32.7c0,21.1,0,42.3,0,63.4c-1.2,0.3-2.3-0.8-3.2-1.3c-16.6-10-34.7-20.7-51.2-31.2C68.3,140,68.3,118.8,68.3,97.5z"/><path fill="#000000" d="M187.2,166.2c-17.1,9.6-35.9,18.9-53.1,27.5c0-21.3,0-42.6,0-63.9c17.6-9,35.3-18,52.8-27.2C187.5,123.3,187,145.1,187.2,166.2z"/></g></g>
</svg>