<?xml version="1.0" encoding="UTF-8"?>
<svg id="Layer_1" xmlns="http://www.w3.org/2000/svg" version="1.1" viewBox="0 0 1417.32 1417.32">
  <!-- Generator: Adobe Illustrator 29.3.0, SVG Export Plug-In . SVG Version: 2.1.0 Build 146)  -->
  <defs>
    <style>
      .st0 {
        fill: #c68b66;
      }
    </style>
  </defs>
  <path class="st0" d="M548.41,321.77c-14.07,5.84-20.76,21.97-14.93,36.04,5.84,14.07,21.97,20.76,36.04,14.92,14.06-5.82,20.74-21.95,14.92-36.03-5.82-14.07-21.95-20.76-36.03-14.93Z"/>
  <path class="st0" d="M832.87,336.7c-5.82,14.07.86,30.21,14.93,36.03,14.07,5.84,30.2-.84,36.03-14.92,5.82-14.07-.86-30.21-14.92-36.03-14.07-5.84-30.21.84-36.04,14.92Z"/>
  <path class="st0" d="M1080.62,584.44c14.07-5.82,20.76-21.95,14.92-36.03-5.82-14.07-21.95-20.76-36.03-14.93-14.07,5.84-20.76,21.97-14.92,36.04,5.82,14.06,21.95,20.74,36.03,14.92Z"/>
  <path class="st0" d="M1095.54,868.92c5.84-14.07-.84-30.21-14.92-36.04-14.07-5.82-30.21.86-36.03,14.93-5.84,14.07.85,30.21,14.92,36.03,14.07,5.82,30.21-.84,36.03-14.92Z"/>
  <path class="st0" d="M868.91,1095.55c14.07-5.84,20.76-21.97,14.93-36.04-5.84-14.07-21.97-20.74-36.04-14.92-14.06,5.82-20.74,21.95-14.92,36.03,5.82,14.07,21.95,20.76,36.03,14.93Z"/>
  <path class="st0" d="M569.51,1044.59c-14.07-5.84-30.2.85-36.03,14.92-5.82,14.07.86,30.21,14.92,36.03,14.07,5.84,30.21-.84,36.04-14.92,5.82-14.07-.86-30.21-14.93-36.03Z"/>
  <path class="st0" d="M336.7,832.88c-14.07,5.82-20.76,21.96-14.92,36.03,5.82,14.07,21.95,20.76,36.03,14.93,14.07-5.84,20.76-21.96,14.92-36.03-5.82-14.07-21.95-20.76-36.03-14.93Z"/>
  <path class="st0" d="M321.78,548.4c-5.84,14.07.85,30.22,14.92,36.04,14.07,5.82,30.21-.86,36.03-14.93,5.84-14.07-.85-30.19-14.92-36.03-14.07-5.82-30.21.86-36.03,14.92Z"/>
  <path class="st0" d="M112.86,466.74c11.48-28.3,24.86-55.57,40.11-81.72-1.49-24.8-2.1-47.31-2.44-66.14-29.11,41.57-53.42,86.25-72.64,133.68-18.02,44.43-31.19,90.23-39.46,137.02,13.57-13.09,29.91-28.58,48.5-45.05,6.94-26.35,15.58-52.31,25.92-77.79Z"/>
  <path class="st0" d="M86.93,872.8c-18.57-16.47-34.94-31.96-48.49-45.05,8.25,46.78,21.43,92.58,39.44,137.02,19.24,47.43,43.53,92.11,72.64,133.68.34-18.84.97-41.36,2.44-66.16-15.24-26.13-28.64-53.41-40.1-81.71-10.34-25.47-18.99-51.44-25.93-77.79Z"/>
  <path class="st0" d="M466.73,1304.46c-28.3-11.48-55.57-24.87-81.72-40.12-24.78,1.49-47.31,2.1-66.14,2.44,41.57,29.12,86.25,53.42,133.68,72.64,44.43,18.02,90.23,31.19,137.02,39.46-13.09-13.57-28.58-29.93-45.05-48.5-26.35-6.94-52.31-15.59-77.79-25.92Z"/>
  <path class="st0" d="M950.58,112.86c28.3,11.48,55.57,24.87,81.72,40.12,24.8-1.49,47.31-2.1,66.14-2.44-41.58-29.12-86.25-53.42-133.68-72.64-44.43-18.02-90.23-31.19-137.02-39.45,13.09,13.57,28.58,29.93,45.05,48.5,26.35,6.94,52.31,15.59,77.79,25.92Z"/>
  <path class="st0" d="M1330.38,544.52c18.58,16.49,34.94,31.96,48.5,45.05-8.27-46.78-21.43-92.58-39.45-137.02-19.22-47.43-43.53-92.11-72.64-133.68-.34,18.85-.95,41.36-2.44,66.16,15.24,26.15,28.64,53.41,40.12,81.71,10.32,25.47,18.97,51.44,25.92,77.79Z"/>
  <path class="st0" d="M950.58,1304.46c-25.47,10.33-51.44,18.97-77.79,25.92-16.47,18.58-31.96,34.94-45.05,48.5,46.78-8.27,92.58-21.43,137.02-39.46,47.43-19.22,92.11-43.53,133.68-72.64-18.84-.34-41.36-.95-66.14-2.44-26.15,15.24-53.42,28.64-81.72,40.12Z"/>
  <path class="st0" d="M1304.46,950.59c-11.48,28.3-24.87,55.56-40.12,81.71,1.49,24.8,2.1,47.31,2.44,66.16,29.12-41.57,53.42-86.25,72.64-133.68,18.02-44.43,31.19-90.23,39.46-137.02-13.57,13.09-29.93,28.58-48.5,45.05-6.94,26.35-15.59,52.31-25.92,77.79Z"/>
  <path class="st0" d="M466.74,112.85c25.47-10.32,51.42-18.96,77.77-25.9,1.09-1.23,2.17-2.43,3.23-3.63.55-.61,1.09-1.21,1.63-1.81.61-.69,1.21-1.37,1.83-2.04.57-.61,1.12-1.24,1.69-1.86.58-.65,1.17-1.29,1.75-1.94.55-.61,1.11-1.23,1.66-1.84.6-.65,1.2-1.29,1.78-1.95.72-.78,1.44-1.57,2.15-2.34.81-.89,1.63-1.77,2.43-2.64.57-.6,1.12-1.2,1.67-1.81.54-.57,1.06-1.14,1.6-1.72.57-.6,1.14-1.21,1.69-1.81.51-.54,1.01-1.09,1.52-1.63.55-.6,1.12-1.2,1.67-1.78.52-.57,1.05-1.12,1.57-1.67.71-.75,1.43-1.52,2.14-2.26.74-.78,1.46-1.57,2.2-2.34.54-.57,1.06-1.12,1.6-1.67.48-.51.95-1.01,1.43-1.51.54-.57,1.06-1.12,1.6-1.69.45-.46.89-.94,1.34-1.4.54-.57,1.08-1.12,1.61-1.67.41-.45.85-.88,1.26-1.32,1.03-1.08,2.04-2.12,3.04-3.16.32-.34.64-.68.97-1-46.78,8.25-92.58,21.42-137,39.44-47.43,19.24-92.11,43.53-133.68,72.64,18.84.34,41.34.95,66.14,2.44,26.15-15.24,53.42-28.64,81.72-40.12Z"/>
  <path class="st0" d="M1414.52,698.77c-.25-.8-1.14-1.92-2.92-3.64-1.37-1.34-3.03-3.06-4.92-5.13-4.64-5.02-10.79-12.06-18.01-20.33-25.49-29.25-68.17-78.19-120.62-124.39-7.37-6.48-14.73-12.74-22.08-18.76-11.4-9.36-22.75-18.11-34.08-26.32-8.8-6.38-17.59-12.43-26.33-18.1-2.8-1.81-5.58-3.58-8.36-5.33-32.6-20.37-64.7-35.81-96.06-46.15-14.17-4.66-28.21-8.19-42.1-10.57-12.84-2.21-25.55-3.44-38.09-3.7-10.03-.2-19.97.22-29.79,1.26-2.64.28-5.3.61-7.94.98-3.75.52-7.48,1.15-11.2,1.86-35.95,6.93-70.09,22.86-98.71,46.09-49.47,40.12-79.91,99.65-77.57,150.46.12,2.46.31,4.9.58,7.33.95,8.57,7.51,15.13,15.63,16.5.28.06.58.11.91.14.05.02.08.02.14.03.06,0,.14,0,.2.02.08,0,.15.01.23.01,2.8.31,5.62.49,8.47.6,1.31.03,2.61.06,3.92.06,49.55,0,106.29-29.99,144.98-77.68,23.21-28.64,39.15-62.78,46.08-98.73.72-3.7,1.34-7.45,1.87-11.2,12.06.15,24.86,1.4,38.39,3.98,10.31,1.98,21.05,4.73,32.2,8.4,32.73,10.8,66.56,27.82,101.17,50.89-8.16,40.79-20.05,76.76-35.55,107.53-5.3,10.48-10.94,20.02-16.84,28.7,1.86,1.44,3.7,2.92,5.53,4.42,7.9,6.51,15.47,13.55,22.71,21.11,8.14-11.51,15.58-23.94,22.29-37.24,14.86-29.48,26.64-63.12,35.28-100.56,5.73,4.38,11.46,8.93,17.22,13.63,3.16,2.59,6.32,5.24,9.49,7.92,13.19,47.27,19.94,96.08,19.94,145.8,0,45.65-5.62,90.56-16.76,134.19,1.77,5.99,3.46,12.08,5.09,18.27,0,0,0,0,0,0h0c2.54,9.65,4.89,19.56,7.07,29.68,7.34-6.02,14.7-12.28,22.08-18.78,52.45-46.18,95.13-95.13,120.62-124.37,4.47-5.13,8.54-9.79,12.09-13.78,4.52-5.1,8.2-9.13,10.83-11.68,6.47-6.28,7.47-16.06,2.92-23.43ZM921.48,540.23c-33.19,40.91-75.79,60.32-107.67,63.28,2.97-31.88,22.37-74.48,63.28-107.67,16.93-13.74,44.76-31.17,82.8-38.41-7.24,38.04-24.67,65.87-38.41,82.8ZM1360.24,722.86c-19.79,22.68-47.14,54.04-80.79,87.02,5.86-33.22,8.87-67.02,8.87-101.22s-3.01-68.01-8.86-101.23c33.64,32.98,60.99,64.34,80.78,87.03,4.67,5.36,8.79,10.08,12.44,14.2-3.66,4.1-7.77,8.83-12.44,14.2Z"/>
  <path class="st0" d="M545.28,149.26c-8.51,9.68-16.62,19.33-24.34,28.96-7.28,9.1-14.18,18.16-20.73,27.19-6.39,8.82-12.43,17.59-18.11,26.35-1.81,2.78-3.58,5.58-5.32,8.36-20.37,32.59-35.83,64.7-46.17,96.04-4.65,14.17-8.19,28.21-10.57,42.11-2.21,12.83-3.44,25.54-3.69,38.09-.22,10.03.2,19.96,1.24,29.78.28,2.66.61,5.3.98,7.94.52,3.75,1.15,7.5,1.86,11.22,6.93,35.95,22.86,70.09,46.09,98.71,38.69,47.69,95.41,77.68,144.96,77.68,1.97,0,3.93-.05,5.88-.14,2.32-.12,4.64-.31,6.94-.55,8.5-.95,15.04-7.42,16.47-15.44.08-.34.14-.72.18-1.15,0-.03.02-.05.02-.08v-.09c.02-.12.03-.26.05-.38.2-1.89.35-3.81.46-5.73,2.84-51.04-27.67-111.16-77.5-151.58-28.64-23.23-62.76-39.16-98.71-46.09-3.72-.71-7.47-1.32-11.22-1.86.15-12.06,1.4-24.87,3.98-38.41,1.98-10.31,4.73-21.03,8.4-32.19,10.8-32.73,27.82-66.57,50.9-101.19,40.78,8.17,76.74,20.05,107.52,35.57,10.48,5.29,20.02,10.92,28.71,16.82,1.44-1.86,2.9-3.7,4.41-5.52,6.51-7.91,13.55-15.49,21.11-22.72-11.51-8.14-23.94-15.58-37.24-22.29-29.48-14.86-63.1-26.64-100.56-35.28,5.58-7.27,11.4-14.56,17.48-21.88,1.33-1.61,2.71-3.22,4.07-4.83,47.27-13.19,96.07-19.95,145.8-19.95,45.65,0,90.56,5.62,134.19,16.76,5.99-1.77,12.08-3.46,18.27-5.09,0,0,0,0,0,0,9.66-2.52,19.56-4.89,29.68-7.07-6.02-7.34-12.28-14.7-18.78-22.08-46.18-52.44-95.12-95.12-124.37-120.62-3.78-3.3-7.31-6.38-10.51-9.19-6.65-5.85-11.86-10.56-14.95-13.74-.11-.11-.2-.2-.31-.31-.03-.02-.06-.06-.08-.08-.03-.03-.06-.05-.08-.08-.32-.31-.63-.57-.91-.78-7.5-6.36-18.76-5.92-25.7,1.24-2.6,2.67-6.68,6.41-11.85,11-3.96,3.5-8.56,7.51-13.61,11.92-29.25,25.5-78.19,68.19-124.39,120.62ZM540.22,495.84c40.91,33.2,60.33,75.79,63.28,107.69-31.88-2.97-74.47-22.37-107.67-63.3-13.74-16.93-31.17-44.76-38.41-82.78,38.04,7.22,65.87,24.66,82.8,38.39ZM694.46,57.09c5.36-4.67,10.08-8.8,14.2-12.44,4.12,3.64,8.83,7.76,14.2,12.43,22.69,19.79,54.04,47.15,87.02,80.79-33.22-5.86-67.02-8.86-101.21-8.86s-68,3-101.22,8.86c32.97-33.64,64.32-60.99,87.01-80.77Z"/>
  <path class="st0" d="M199.92,457.51c1.44,14.67,3.29,28.9,5.48,42.7,1.72,10.75,3.66,21.23,5.82,31.43.69,3.26,1.41,6.48,2.15,9.68,8.63,37.44,20.42,71.07,35.28,100.56,6.71,13.31,14.17,25.73,22.29,37.24,7.53,10.63,15.64,20.5,24.32,29.55,6.96,7.24,14.27,13.97,21.94,20.17,2.09,1.67,4.18,3.32,6.31,4.92,3.03,2.29,6.11,4.49,9.25,6.61,30.31,20.53,65.73,33.4,102.39,37.23,7.88.81,15.76,1.21,23.6,1.21,54.73,0,106.87-19.59,136.99-52.05,1.89-2.06,3.72-4.15,5.42-6.3,5.36-6.7,5.41-15.92.72-22.6-.2-.31-.43-.61-.72-.97-.05-.06-.09-.12-.14-.18-.05-.05-.09-.11-.12-.15-1.84-2.27-3.8-4.5-5.84-6.68-34.57-36.66-97.36-56.63-159.91-50.12-36.66,3.83-72.07,16.7-102.39,37.23-3.13,2.12-6.22,4.32-9.25,6.61-8.42-8.65-16.59-18.58-24.34-29.98-5.9-8.7-11.54-18.22-16.82-28.72-15.52-30.77-27.39-66.74-35.55-107.53,34.6-23.06,68.45-40.08,101.17-50.89,11.15-3.67,21.88-6.42,32.2-8.4-.29-2.34-.55-4.67-.78-7.02-.98-10.19-1.37-20.53-1.14-30.99-13.9,2.38-27.95,5.92-42.1,10.57-31.36,10.34-63.47,25.78-96.06,46.17-1.3-9.93-2.35-20.17-3.27-30.57,1.86-5.41,3.68-10.66,5.5-13.98,22.95-38.67,50.75-74.41,83.12-106.78,32.37-32.37,68.11-60.17,106.78-83.12,2.95-5.4,6.01-10.84,9.19-16.28.03-.05.06-.1.09-.15,5.04-8.62,10.37-17.28,15.98-25.98-9.45-.94-19.07-1.72-28.88-2.35-69.74-4.42-134.53.02-173.23,2.66-4.59.31-8.9.61-12.86.86-9.36.6-16.76,1-21.36.94h-.63c-.22,0-.42.02-.63.03-10.08.51-18.04,8.93-17.88,19.11.08,5.13-.41,13.74-1.15,24.64-.2,3.03-.41,6.21-.65,9.57-2.64,38.7-7.07,103.49-2.66,173.23.63,9.82,1.41,19.44,2.35,28.88ZM439.08,677.27c52.41-5.45,96.24,10.94,120.88,31.39-24.64,20.45-68.49,36.84-120.88,31.39-21.69-2.26-53.7-9.6-85.7-31.39,32-21.79,64.01-29.13,85.7-31.39ZM237.89,257.96c.49-7.08.91-13.35,1.24-18.84,5.49-.32,11.74-.75,18.82-1.23,30.04-2.05,71.52-4.89,118.6-4.42-27.58,19.33-53.57,41.1-77.78,65.31-24.21,24.21-45.98,50.21-65.31,77.78-.47-47.08,2.37-88.58,4.42-118.6Z"/>
  <path class="st0" d="M231.75,935.22c2.8,1.81,5.58,3.58,8.36,5.32,32.6,20.37,64.7,35.81,96.06,46.15,14.15,4.67,28.21,8.19,42.1,10.59,12.83,2.2,25.54,3.44,38.09,3.7,1.66.03,3.32.05,4.96.05,8.34,0,16.62-.45,24.81-1.32,2.66-.28,5.32-.6,7.94-.97,3.76-.54,7.5-1.15,11.22-1.87,35.95-6.91,70.09-22.85,98.71-46.08,49.09-39.81,79.43-98.74,77.6-149.29-.11-2.86-.31-5.7-.61-8.5-.92-8.31-7.11-14.73-14.87-16.36-.23-.06-.49-.11-.78-.17-.06,0-.12-.02-.2-.03-.2-.03-.43-.06-.68-.09-.05,0-.09-.02-.14-.02s-.09-.02-.14-.02c-.09-.02-.2-.02-.31-.03-3.03-.32-6.08-.52-9.17-.6-50.29-1.34-108.65,28.92-148.17,77.63-23.21,28.62-39.15,62.76-46.08,98.71-.72,3.72-1.34,7.45-1.87,11.2-12.06-.15-24.86-1.38-38.39-3.98-10.32-1.97-21.05-4.72-32.2-8.4-32.73-10.79-66.56-27.81-101.17-50.89,8.16-40.78,20.05-76.74,35.55-107.52,5.28-10.49,10.92-20.02,16.82-28.72-1.84-1.44-3.69-2.92-5.51-4.41-7.9-6.51-15.47-13.55-22.71-21.13-8.14,11.52-15.59,23.95-22.29,37.26-14.87,29.48-26.64,63.1-35.29,100.56-7.8-5.99-15.66-12.29-23.52-18.87-1.06-.89-2.13-1.85-3.2-2.74-13.17-47.25-19.92-96.04-19.92-145.74,0-45.65,5.62-90.56,16.75-134.19-1.75-5.99-3.46-12.08-5.07-18.27,0,0,0,0,0,0-2.53-9.66-4.88-19.55-7.07-29.68-7.36,6.02-14.72,12.28-22.09,18.76-52.44,46.2-95.12,95.13-120.61,124.39-1.97,2.24-3.86,4.39-5.64,6.45-7.53,8.59-13.49,15.32-17.29,19.01-.11.11-.2.2-.31.29-.03.03-.06.06-.09.09-.03.03-.05.06-.08.09-.26.28-.49.52-.66.75-6.48,7.51-6.07,18.85,1.14,25.84,2.77,2.69,6.73,7.02,11.58,12.52,3.36,3.81,7.16,8.16,11.34,12.94,25.49,29.24,68.17,78.19,120.61,124.37,9.82,8.65,19.6,16.87,29.36,24.66,8.96,7.18,17.9,13.97,26.79,20.42,8.82,6.39,17.61,12.43,26.35,18.11ZM495.85,877.1c33.19-40.93,75.79-60.32,107.67-63.28-2.97,31.88-22.37,74.47-63.28,107.66-16.95,13.74-44.76,31.17-82.8,38.41,7.22-38.04,24.67-65.85,38.41-82.78ZM57.08,722.86c-4.67-5.36-8.79-10.09-12.44-14.2,3.66-4.12,7.77-8.83,12.44-14.2,19.79-22.69,47.14-54.05,80.78-87.03-5.86,33.22-8.86,67.02-8.86,101.22s3,68,8.86,101.23c-33.64-32.98-60.99-64.34-80.78-87.02Z"/>
  <path class="st0" d="M428.62,1219.75c13.44-.86,26.53-2.01,39.3-3.44,11.02-1.24,21.77-2.72,32.28-4.39,10.75-1.72,21.23-3.66,31.43-5.82,3.26-.69,6.48-1.41,9.68-2.15,37.46-8.63,71.07-20.42,100.56-35.29,13.31-6.7,25.73-14.15,37.24-22.28,10.63-7.53,20.48-15.64,29.55-24.32,7.24-6.94,13.97-14.27,20.17-21.94,1.67-2.07,3.32-4.19,4.93-6.31,2.27-3.03,4.47-6.12,6.59-9.25,20.53-30.31,33.4-65.73,37.23-102.39,6.64-63.73-14.23-127.74-52.24-161.86-1.61-1.43-3.24-2.83-4.9-4.15-6.47-5.18-15.27-5.39-21.89-1.18-.23.14-.45.28-.69.45-.31.22-.65.45-.98.74-.06.05-.12.09-.18.14-.05.05-.11.09-.15.12-1.57,1.26-3.1,2.58-4.61,3.93-37.98,34.14-58.83,98.1-52.19,161.81,3.83,36.66,16.7,72.07,37.23,102.39,2.12,3.13,4.32,6.22,6.59,9.25-8.63,8.42-18.56,16.59-29.96,24.34-8.7,5.9-18.24,11.54-28.72,16.82-30.77,15.52-66.74,27.39-107.52,35.57-23.08-34.61-40.1-68.46-50.9-101.19-3.67-11.15-6.42-21.88-8.4-32.2-2.34.29-4.67.57-7.02.78-8.25.8-16.61,1.21-25.04,1.21-1.98,0-3.96-.03-5.95-.08,2.38,13.9,5.92,27.95,10.57,42.1,10.34,31.36,25.8,63.47,46.15,96.06-8,1.06-16.18,1.98-24.49,2.78-3.24.32-6.62.52-9.9.79-42.58-24.02-81.74-53.75-116.92-88.93-32.37-32.37-60.17-68.09-83.12-106.78-5.14-2.79-10.3-5.72-15.48-8.73-.32-.18-.63-.36-.95-.54-8.62-5.04-17.28-10.37-25.98-15.98-.94,9.45-1.72,19.07-2.35,28.88-4.43,69.74.02,134.53,2.66,173.23.41,6.05.78,11.58,1.09,16.49.48,7.65.77,13.74.71,17.73-.15,10.42,8.16,18.99,18.59,19.14h.55c2.54-.03,5.95.08,10.05.28,6.47.31,14.7.88,24.17,1.52,26.86,1.83,66.26,4.53,111.19,4.53,19.82,0,40.7-.52,62.04-1.87ZM677.27,978.24c-3.1-29.74.86-56.71,8.57-79,5.9-16.98,13.97-31.22,22.82-41.88,1.32,1.6,2.64,3.29,3.93,5.05,18.56,25.33,32.56,66.83,27.46,115.83-2.27,21.69-9.6,53.7-31.39,85.7-21.79-32-29.13-64.01-31.39-85.7ZM257.96,1179.43c-7.08-.48-13.35-.91-18.84-1.23-.32-5.48-.75-11.75-1.23-18.84-2.05-30.02-4.89-71.51-4.42-118.6,19.32,27.58,41.1,53.57,65.3,77.77,24.21,24.21,50.21,45.99,77.78,65.32-47.08.47-88.57-2.37-118.6-4.42Z"/>
  <path class="st0" d="M872.02,1268.06c6.5-7.37,12.75-14.73,18.77-22.08,9.34-11.4,18.11-22.77,26.32-34.08,6.38-8.82,12.41-17.59,18.1-26.35,1.81-2.78,3.58-5.58,5.33-8.36,20.37-32.59,35.81-64.68,46.15-96.06,4.65-14.15,8.19-28.19,10.57-42.1,2.2-12.83,3.44-25.53,3.69-38.07.22-10.03-.2-19.97-1.24-29.79-.28-2.66-.61-5.3-.98-7.96-.54-3.75-1.15-7.48-1.86-11.19-6.93-35.97-22.86-70.09-46.09-98.73-22.17-27.33-50.29-48.86-79.57-62.26-26.27-12-53.48-17.48-78.22-14.73-8.54.95-15.09,7.47-16.49,15.53-.06.32-.12.68-.17,1.08,0,.03-.02.05-.02.06v.09c-.02.12-.03.26-.05.38-.21,2.09-.38,4.19-.49,6.31-2.57,50.93,27.89,110.74,77.53,151,28.64,23.23,62.76,39.16,98.71,46.09,3.72.71,7.47,1.32,11.22,1.86-.15,12.06-1.4,24.87-3.98,38.39-1.98,10.33-4.73,21.05-8.4,32.2-10.8,32.73-27.82,66.57-50.89,101.19-40.79-8.17-76.76-20.05-107.53-35.57-10.49-5.29-20.02-10.92-28.72-16.82-1.44,1.86-2.92,3.7-4.41,5.52-6.51,7.91-13.55,15.49-21.13,22.72,11.52,8.14,23.95,15.58,37.26,22.29,29.48,14.86,63.1,26.64,100.56,35.28-4.95,6.45-10.11,12.92-15.44,19.4-2.01,2.43-4.07,4.87-6.13,7.31-47.27,13.18-96.07,19.92-145.78,19.92-45.65,0-90.56-5.61-134.19-16.75-5.99,1.77-12.08,3.46-18.27,5.09,0,0,0,0,0,0-9.66,2.52-19.56,4.89-29.68,7.07,6.02,7.34,12.28,14.7,18.76,22.08,46.2,52.44,95.13,95.12,124.39,120.62,5.27,4.59,10.03,8.76,14.1,12.37,4.95,4.39,8.85,7.97,11.35,10.56,3.7,3.81,8.62,5.73,13.54,5.72,4.73,0,9.48-1.77,13.14-5.32.09-.09.15-.17.25-.26.05-.05.11-.08.15-.14,2.44-2.52,6.24-6.01,11.02-10.25,4.15-3.69,9.02-7.94,14.44-12.67,29.24-25.5,78.19-68.19,124.37-120.62ZM877.1,921.48c-40.91-33.2-60.33-75.79-63.28-107.67,31.88,2.95,74.47,22.37,107.67,63.28,13.72,16.93,31.17,44.76,38.4,82.78-38.03-7.24-65.85-24.67-82.78-38.39ZM722.86,1360.25c-5.36,4.67-10.08,8.79-14.2,12.43-4.12-3.64-8.83-7.77-14.2-12.45-22.69-19.78-54.05-47.13-87.02-80.77,33.22,5.86,67.02,8.86,101.21,8.86s67.99-3.01,101.22-8.86c-32.97,33.64-64.32,61-87.01,80.79Z"/>
  <path class="st0" d="M1217.39,959.81c-1.44-14.67-3.29-28.9-5.49-42.7-1.72-10.74-3.66-21.23-5.82-31.43-.69-3.26-1.41-6.47-2.15-9.68-8.65-37.44-20.42-71.06-35.29-100.54-6.7-13.31-14.15-25.73-22.29-37.26-7.51-10.63-15.63-20.48-24.31-29.53-6.96-7.25-14.27-13.98-21.94-20.19-2.09-1.67-4.18-3.32-6.31-4.92-3.03-2.27-6.12-4.49-9.25-6.61-30.31-20.53-65.73-33.4-102.39-37.21-62.87-6.56-126,13.66-160.46,50.7-1.94,2.09-3.8,4.22-5.55,6.42-5.42,6.78-5.41,16.13-.55,22.83.15.25.34.49.55.75.03.05.08.09.12.15.06.08.12.15.18.22,2.01,2.49,4.15,4.9,6.39,7.25,30.3,31.68,81.74,50.73,135.71,50.73,7.84,0,15.72-.4,23.6-1.23,36.66-3.81,72.07-16.69,102.39-37.21,3.13-2.12,6.22-4.33,9.25-6.61,8.42,8.63,16.59,18.57,24.34,29.97,5.9,8.7,11.54,18.22,16.82,28.72,15.52,30.76,27.39,66.73,35.55,107.52-34.6,23.06-68.45,40.1-101.17,50.89-11.15,3.67-21.88,6.42-32.2,8.4.29,2.34.55,4.67.78,7.02.98,10.19,1.37,20.53,1.14,30.99,13.9-2.38,27.95-5.9,42.1-10.57,31.36-10.34,63.47-25.78,96.06-46.15.8,6.11,1.54,12.34,2.2,18.64.54,5.13,1.03,10.33,1.47,15.58-24.04,42.65-53.79,81.88-89.02,117.09-32.37,32.39-68.09,60.18-106.78,83.13-2.98,5.45-6.07,10.92-9.28,16.42h0c-5.04,8.62-10.37,17.28-15.98,25.99,9.45.94,19.07,1.72,28.88,2.34,21.34,1.35,42.22,1.87,62.04,1.87,44.91,0,84.33-2.69,111.19-4.53,5.58-.37,10.72-.72,15.33-1.01,8.19-.51,14.69-.83,18.88-.77h.28c9.89,0,18.02-7.64,18.79-17.38.05-.32.06-.71.08-1.14v-.65c-.05-3,.11-7.19.38-12.34.34-6.08.85-13.49,1.41-21.86,2.64-38.72,7.07-103.49,2.64-173.24-.61-9.8-1.4-19.44-2.34-28.88ZM978.24,740.04c-52.41,5.47-96.24-10.92-120.88-31.37,24.64-20.46,68.48-36.86,120.88-31.39,21.69,2.26,53.7,9.6,85.7,31.39-32,21.77-64.01,29.11-85.7,31.37ZM1179.43,1159.36c-.48,7.1-.91,13.35-1.23,18.84-5.5.32-11.75.75-18.84,1.24-30.04,2.05-71.53,4.88-118.61,4.42,27.58-19.32,53.58-41.1,77.78-65.31,24.21-24.2,45.99-50.19,65.31-77.77.47,47.08-2.37,88.57-4.42,118.59ZM1202.84,1191.57c-.03-.29-.06-.6-.09-.95.29.14.6.29.88.46l-.78.49Z"/>
  <path class="st0" d="M988.7,197.58c-9.82.63-19.44,1.41-28.9,2.35-14.66,1.44-28.9,3.29-42.68,5.48-10.75,1.72-21.23,3.66-31.43,5.82-3.26.69-6.48,1.41-9.68,2.15-37.46,8.63-71.07,20.42-100.56,35.29-13.3,6.7-25.73,14.15-37.24,22.28-10.63,7.51-20.5,15.64-29.55,24.32-7.24,6.94-13.97,14.26-20.17,21.94-1.68,2.07-3.32,4.18-4.93,6.31-2.27,3.03-4.47,6.11-6.59,9.25-20.53,30.31-33.4,65.73-37.23,102.39-6.65,63.82,14.29,127.9,52.39,162,1.55,1.38,3.13,2.74,4.75,4.01,3.47,2.8,7.64,4.15,11.77,4.15h.03s.03-.02.05-.02c.43,0,.86-.02,1.29-.05.14-.02.28-.02.43-.03.37-.05.75-.09,1.14-.15.14-.02.29-.05.43-.06.34-.06.69-.14,1.03-.22.17-.05.32-.09.49-.12.38-.11.78-.23,1.17-.35.11-.03.2-.08.29-.11.37-.14.74-.28,1.11-.43.11-.05.21-.09.34-.14.43-.2.86-.41,1.28-.65.02,0,.02-.02.03-.02.45-.25.88-.51,1.31-.8.03-.01.08-.05.11-.06.45-.29.88-.61,1.29-.95,2.26-1.8,4.46-3.72,6.61-5.72,36.92-34.49,57.08-97.52,50.53-160.29-3.83-36.66-16.7-72.07-37.23-102.39-2.12-3.13-4.32-6.22-6.59-9.25,8.64-8.42,18.56-16.59,29.96-24.34,8.7-5.9,18.24-11.54,28.72-16.82,30.77-15.52,66.74-27.39,107.53-35.57,23.06,34.62,40.08,68.46,50.89,101.19,3.67,11.15,6.42,21.88,8.4,32.19,2.34-.28,4.67-.54,7.02-.77,10.19-.98,20.53-1.37,30.99-1.14-2.38-13.9-5.92-27.95-10.57-42.11-10.34-31.34-25.78-63.45-46.15-96.04,9.22-1.21,18.67-2.27,28.3-3.15,1.96-.18,4-.3,5.98-.46,42.62,24.04,81.83,53.76,117.04,88.96,32.36,32.37,60.17,68.09,83.12,106.78,5.09,2.76,10.19,5.67,15.31,8.64.37.22.74.42,1.11.64,8.62,5.04,17.28,10.36,25.98,15.98.94-9.45,1.72-19.07,2.35-28.88,4.43-69.74-.02-134.53-2.66-173.23-.37-5.29-.69-10.19-.98-14.61-.54-8.53-.88-15.29-.81-19.6.15-10.42-8.16-18.99-18.59-19.14h-.55c-2.67.03-6.33-.08-10.74-.31-6.36-.32-14.35-.86-23.48-1.49-38.7-2.64-103.49-7.07-173.23-2.66ZM740.05,439.08c5.45,52.39-10.94,96.24-31.39,120.88-20.45-24.64-36.84-68.49-31.39-120.88,2.26-21.69,9.6-53.7,31.39-85.7,21.79,32,29.13,64.01,31.39,85.7ZM1178.2,239.14c.32,5.48.75,11.74,1.23,18.82,2.05,30.02,4.89,71.51,4.42,118.59-19.32-27.58-41.1-53.57-65.3-77.77-24.21-24.21-50.21-45.99-77.78-65.31,47.08-.47,88.57,2.37,118.59,4.42,7.08.48,13.35.91,18.84,1.24Z"/>
</svg>